ply
format ascii 1.0
comment PCL generated
element vertex 368
property float x
property float y
property float z
element face 92
property list uchar int vertex_indices
end_header
0.0096912 0.23876 -0.075405 
0.025156 0.22549 -0.023549 
0.074507 0.22365 -0.02892 
0.075 0.275 -0.025 
0.075 0.275 -0.025 
0.065762 0.25372 -0.10418 
0.079995 0.23815 -0.037957 
0.074507 0.22365 -0.02892 
-0.037711 0.24454 -0.067525 
-0.028843 0.2658 -0.087752 
0.018617 0.25994 -0.095775 
0.0096912 0.23876 -0.075405 
-0.028843 0.2658 -0.087752 
-0.020932 0.28484 -0.11223 
0.026555 0.27869 -0.12023 
0.018617 0.25994 -0.095775 
0.074507 0.22365 -0.02892 
0.076839 0.18112 -0.0045134 
0.12171 0.17228 -0.034241 
0.11151 0.21174 -0.059483 
-0.085175 0.25037 -0.059479 
-0.076458 0.27147 -0.079914 
-0.028843 0.2658 -0.087752 
-0.037711 0.24454 -0.067525 
0.11151 0.21174 -0.059483 
0.12549 0.22547 -0.073786 
0.13603 0.18401 -0.044874 
0.12171 0.17228 -0.034241 
-0.076458 0.27147 -0.079914 
-0.068643 0.29065 -0.10466 
-0.020932 0.28484 -0.11223 
-0.028843 0.2658 -0.087752 
-0.026202 0.16977 0.0071115 
-0.025136 0.12441 0.022964 
0.024689 0.12372 0.020577 
0.023495 0.16902 0.004597 
-0.17985 0.26107 -0.045514 
-0.17423 0.22304 -0.031168 
-0.12444 0.22833 -0.015085 
-0.13269 0.25609 -0.051521 
-0.075964 0.17036 0.0092173 
-0.074996 0.12502 0.02507 
-0.025136 0.12441 0.022964 
-0.026202 0.16977 0.0071115 
-0.22813 0.24316 -0.063833 
-0.2072 0.21223 -0.070135 
-0.17423 0.22304 -0.031168 
-0.17985 0.26107 -0.045514 
-0.025136 0.12441 0.022964 
-0.024202 0.07845 0.037013 
0.025657 0.077711 0.034486 
0.024689 0.12372 0.020577 
-0.17423 0.22304 -0.031168 
-0.17604 0.17686 -0.019309 
-0.12412 0.18387 0.0040593 
-0.12444 0.22833 -0.015085 
-0.16812 0.16292 -0.012261 
-0.17604 0.17686 -0.019309 
-0.12412 0.18387 0.0040593 
-0.12549 0.17032 0.0095132 
-0.074996 0.12502 0.02507 
-0.074121 0.079024 0.038981 
-0.024202 0.07845 0.037013 
-0.025136 0.12441 0.022964 
-0.2072 0.21223 -0.070135 
-0.20596 0.16277 -0.063945 
-0.17604 0.17686 -0.019309 
-0.17423 0.22304 -0.031168 
0.072928 0.16796 0.0011273 
0.076839 0.18112 -0.0045134 
0.07808 0.13584 0.012224 
0.074354 0.12267 0.016931 
0.074354 0.12267 0.016931 
0.075431 0.076572 0.030552 
0.11768 0.068919 0.0035 
0.11315 0.11514 -0.0094233 
-0.22813 0.24316 -0.063833 
-0.22603 0.26301 -0.089095 
-0.17258 0.28196 -0.064874 
-0.17985 0.26107 -0.045514 
-0.074256 0.22786 -0.016336 
-0.073249 0.18358 0.0039536 
-0.023184 0.18291 0.0018515 
-0.024488 0.22676 -0.019668 
-0.075964 0.17036 0.0092173 
-0.073249 0.18358 0.0039536 
-0.023184 0.18291 0.0018515 
-0.026202 0.16977 0.0071115 
0.024689 0.12372 0.020577 
0.025657 0.077711 0.034486 
0.075431 0.076572 0.030552 
0.074354 0.12267 0.016931 
-0.12444 0.22833 -0.015085 
-0.12412 0.18387 0.0040593 
-0.073249 0.18358 0.0039536 
-0.074256 0.22786 -0.016336 
-0.12549 0.17032 0.0095132 
-0.12412 0.18387 0.0040593 
-0.073249 0.18358 0.0039536 
-0.075964 0.17036 0.0092173 
0.13909 -0.012811 0.021584 
0.125 -0.025 -0.075 
0.125 -0.075 -0.075 
0.13398 -0.07449 0.0047988 
0.12612 -0.024019 0.028744 
0.13909 -0.012811 0.021584 
0.13398 -0.07449 0.0047988 
0.1205 -0.075272 0.0097604 
0.12167 0.02226 0.015135 
0.13589 0.033848 0.0068337 
0.13909 -0.012811 0.021584 
0.12612 -0.024019 0.028744 
0.07639 0.029899 0.042817 
0.075927 -0.020995 0.049041 
0.12612 -0.024019 0.028744 
0.12167 0.02226 0.015135 
-0.22014 0.022542 -0.034285 
-0.23949 0.032319 -0.047925 
-0.22077 -0.024347 -0.081568 
-0.20043 -0.021356 -0.064323 
0.13184 0.080632 -0.0051344 
0.14642 0.092278 -0.014216 
0.125 0.025 -0.075 
0.13589 0.033848 0.0068337 
0.11768 0.068919 0.0035 
0.13184 0.080632 -0.0051344 
0.13589 0.033848 0.0068337 
0.12167 0.02226 0.015135 
0.075431 0.076572 0.030552 
0.07639 0.029899 0.042817 
0.12167 0.02226 0.015135 
0.11768 0.068919 0.0035 
-0.21718 0.070617 -0.040377 
-0.23584 0.081123 -0.054028 
-0.23949 0.032319 -0.047925 
-0.22014 0.022542 -0.034285 
-0.19858 0.060445 -0.02736 
-0.21718 0.070617 -0.040377 
-0.22014 0.022542 -0.034285 
-0.20083 0.013043 -0.021592 
-0.12578 -0.021613 0.046473 
-0.12368 -0.07414 0.013609 
-0.075003 -0.075004 0.025073 
-0.074819 -0.020723 0.051388 
0.12726 0.12686 -0.018527 
0.14171 0.13859 -0.028233 
0.14642 0.092278 -0.014216 
0.13184 0.080632 -0.0051344 
0.11315 0.11514 -0.0094233 
0.12726 0.12686 -0.018527 
0.13184 0.080632 -0.0051344 
0.11768 0.068919 0.0035 
-0.21241 0.11744 -0.050267 
-0.23019 0.12817 -0.064724 
-0.23584 0.081123 -0.054028 
-0.21718 0.070617 -0.040377 
-0.19442 0.10695 -0.036786 
-0.21241 0.11744 -0.050267 
-0.21718 0.070617 -0.040377 
-0.19858 0.060445 -0.02736 
-0.1243 0.032288 0.050559 
-0.12578 -0.021613 0.046473 
-0.074819 -0.020723 0.051388 
-0.073443 0.032377 0.051106 
-0.12453 0.079087 0.038983 
-0.1243 0.032288 0.050559 
-0.073443 0.032377 0.051106 
-0.074121 0.079024 0.038981 
0.12171 0.17228 -0.034241 
0.13603 0.18401 -0.044874 
0.14171 0.13859 -0.028233 
0.12726 0.12686 -0.018527 
0.076839 0.18112 -0.0045134 
0.07808 0.13584 0.012224 
0.12726 0.12686 -0.018527 
0.12171 0.17228 -0.034241 
0.074354 0.12267 0.016931 
0.07808 0.13584 0.012224 
0.12726 0.12686 -0.018527 
0.11315 0.11514 -0.0094233 
-0.085175 0.25037 -0.059479 
-0.074256 0.22786 -0.016336 
-0.024488 0.22676 -0.019668 
-0.037711 0.24454 -0.067525 
-0.22077 -0.024347 -0.081568 
-0.225 -0.075 -0.075 
-0.18455 -0.076515 -0.058681 
-0.19976 -0.016504 -0.0079313 
-0.18374 -0.021812 -0.00072121 
-0.19976 -0.016504 -0.0079313 
-0.18455 -0.076515 -0.058681 
-0.164 -0.073299 -0.044198 
-0.225 -0.075 -0.025 
-0.225 -0.075 -0.075 
-0.18455 -0.076515 -0.058681 
-0.164 -0.073299 -0.044198 
-0.1682 -0.027539 0.0058978 
-0.18374 -0.021812 -0.00072121 
-0.164 -0.073299 -0.044198 
-0.14345 -0.070212 -0.030744 
-0.225 -0.075 0.025 
-0.225 -0.075 -0.025 
-0.164 -0.073299 -0.044198 
-0.14345 -0.070212 -0.030744 
-0.20043 -0.021356 -0.064323 
-0.22077 -0.024347 -0.081568 
-0.19976 -0.016504 -0.0079313 
-0.18374 -0.021812 -0.00072121 
-0.22014 0.022542 -0.034285 
-0.20043 -0.021356 -0.064323 
-0.18374 -0.021812 -0.00072121 
-0.18455 0.038967 0.020672 
-0.17516 0.025229 0.025756 
-0.18455 0.038967 0.020672 
-0.18374 -0.021812 -0.00072121 
-0.1682 -0.027539 0.0058978 
-0.20083 0.013043 -0.021592 
-0.22014 0.022542 -0.034285 
-0.18455 0.038967 0.020672 
-0.17516 0.025229 0.025756 
-0.074819 -0.020723 0.051388 
-0.075003 -0.075004 0.025073 
-0.025111 -0.075233 0.02902 
-0.024551 -0.020485 0.052385 
-0.19858 0.060445 -0.02736 
-0.20083 0.013043 -0.021592 
-0.17516 0.025229 0.025756 
-0.1732 0.072144 0.015863 
-0.17985 0.26107 -0.045514 
-0.17258 0.28196 -0.064874 
-0.12414 0.27712 -0.072047 
-0.13269 0.25609 -0.051521 
-0.024488 0.22676 -0.019668 
-0.023184 0.18291 0.0018515 
0.026832 0.18219 -0.00069083 
0.025156 0.22549 -0.023549 
-0.026202 0.16977 0.0071115 
-0.023184 0.18291 0.0018515 
0.026832 0.18219 -0.00069083 
0.023495 0.16902 0.004597 
0.075927 -0.020995 0.049041 
0.075038 -0.075212 0.029169 
0.1205 -0.075272 0.0097604 
0.12612 -0.024019 0.028744 
-0.073443 0.032377 0.051106 
-0.074819 -0.020723 0.051388 
-0.024551 -0.020485 0.052385 
-0.023406 0.031932 0.049552 
-0.074121 0.079024 0.038981 
-0.073443 0.032377 0.051106 
-0.023406 0.031932 0.049552 
-0.024202 0.07845 0.037013 
-0.20596 0.16277 -0.063945 
-0.21241 0.11744 -0.050267 
-0.17915 0.13202 -0.0031065 
-0.17604 0.17686 -0.019309 
-0.16812 0.16292 -0.012261 
-0.17604 0.17686 -0.019309 
-0.17915 0.13202 -0.0031065 
-0.17085 0.11807 0.003231 
-0.19442 0.10695 -0.036786 
-0.21241 0.11744 -0.050267 
-0.17915 0.13202 -0.0031065 
-0.17085 0.11807 0.003231 
-0.19442 0.10695 -0.036786 
-0.19858 0.060445 -0.02736 
-0.1732 0.072144 0.015863 
-0.17085 0.11807 0.003231 
-0.037711 0.24454 -0.067525 
-0.024488 0.22676 -0.019668 
0.025156 0.22549 -0.023549 
0.0096912 0.23876 -0.075405 
-0.1682 -0.027539 0.0058978 
-0.14345 -0.070212 -0.030744 
-0.12368 -0.07414 0.013609 
-0.12578 -0.021613 0.046473 
-0.17516 0.025229 0.025756 
-0.1682 -0.027539 0.0058978 
-0.12578 -0.021613 0.046473 
-0.1243 0.032288 0.050559 
-0.12414 0.27712 -0.072047 
-0.1165 0.29642 -0.097199 
-0.068643 0.29065 -0.10466 
-0.076458 0.27147 -0.079914 
-0.024551 -0.020485 0.052385 
-0.025111 -0.075233 0.02902 
0.024932 -0.0753 0.030485 
0.02566 -0.020551 0.051798 
-0.1732 0.072144 0.015863 
-0.17516 0.025229 0.025756 
-0.1243 0.032288 0.050559 
-0.12453 0.079087 0.038983 
-0.023406 0.031932 0.049552 
-0.024551 -0.020485 0.052385 
0.02566 -0.020551 0.051798 
0.02652 0.031165 0.047028 
-0.024202 0.07845 0.037013 
-0.023406 0.031932 0.049552 
0.02652 0.031165 0.047028 
0.025657 0.077711 0.034486 
-0.17085 0.11807 0.003231 
-0.1732 0.072144 0.015863 
-0.12453 0.079087 0.038983 
-0.12498 0.12515 0.025491 
-0.16812 0.16292 -0.012261 
-0.17085 0.11807 0.003231 
-0.12498 0.12515 0.025491 
-0.12549 0.17032 0.0095132 
0.02566 -0.020551 0.051798 
0.024932 -0.0753 0.030485 
0.075038 -0.075212 0.029169 
0.075927 -0.020995 0.049041 
-0.20596 0.16277 -0.063945 
-0.22285 0.17358 -0.079348 
-0.23019 0.12817 -0.064724 
-0.21241 0.11744 -0.050267 
-0.12498 0.12515 0.025491 
-0.12453 0.079087 0.038983 
-0.074121 0.079024 0.038981 
-0.074996 0.12502 0.02507 
-0.22142 0.22227 -0.083971 
-0.23189 0.2307 -0.10961 
-0.23582 0.18251 -0.10535 
-0.22285 0.17358 -0.079348 
0.02652 0.031165 0.047028 
0.02566 -0.020551 0.051798 
0.075927 -0.020995 0.049041 
0.07639 0.029899 0.042817 
-0.2072 0.21223 -0.070135 
-0.22142 0.22227 -0.083971 
-0.22285 0.17358 -0.079348 
-0.20596 0.16277 -0.063945 
-0.12549 0.17032 0.0095132 
-0.12498 0.12515 0.025491 
-0.074996 0.12502 0.02507 
-0.075964 0.17036 0.0092173 
-0.22603 0.26301 -0.089095 
-0.22502 0.27463 -0.12536 
-0.23189 0.2307 -0.10961 
-0.22142 0.22227 -0.083971 
0.025657 0.077711 0.034486 
0.02652 0.031165 0.047028 
0.07639 0.029899 0.042817 
0.075431 0.076572 0.030552 
-0.22813 0.24316 -0.063833 
-0.22603 0.26301 -0.089095 
-0.22142 0.22227 -0.083971 
-0.2072 0.21223 -0.070135 
0.023495 0.16902 0.004597 
0.024689 0.12372 0.020577 
0.074354 0.12267 0.016931 
0.072928 0.16796 0.0011273 
-0.13269 0.25609 -0.051521 
-0.12444 0.22833 -0.015085 
-0.074256 0.22786 -0.016336 
-0.085175 0.25037 -0.059479 
0.025156 0.22549 -0.023549 
0.026832 0.18219 -0.00069083 
0.076839 0.18112 -0.0045134 
0.074507 0.22365 -0.02892 
0.023495 0.16902 0.004597 
0.026832 0.18219 -0.00069083 
0.076839 0.18112 -0.0045134 
0.072928 0.16796 0.0011273 
-0.13269 0.25609 -0.051521 
-0.12414 0.27712 -0.072047 
-0.076458 0.27147 -0.079914 
-0.085175 0.25037 -0.059479 
4 0 1 2 3
4 4 5 6 7
4 8 9 10 11
4 12 13 14 15
4 16 17 18 19
4 20 21 22 23
4 24 25 26 27
4 28 29 30 31
4 32 33 34 35
4 36 37 38 39
4 40 41 42 43
4 44 45 46 47
4 48 49 50 51
4 52 53 54 55
4 56 57 58 59
4 60 61 62 63
4 64 65 66 67
4 68 69 70 71
4 72 73 74 75
4 76 77 78 79
4 80 81 82 83
4 84 85 86 87
4 88 89 90 91
4 92 93 94 95
4 96 97 98 99
4 100 101 102 103
4 104 105 106 107
4 108 109 110 111
4 112 113 114 115
4 116 117 118 119
4 120 121 122 123
4 124 125 126 127
4 128 129 130 131
4 132 133 134 135
4 136 137 138 139
4 140 141 142 143
4 144 145 146 147
4 148 149 150 151
4 152 153 154 155
4 156 157 158 159
4 160 161 162 163
4 164 165 166 167
4 168 169 170 171
4 172 173 174 175
4 176 177 178 179
4 180 181 182 183
4 184 185 186 187
4 188 189 190 191
4 192 193 194 195
4 196 197 198 199
4 200 201 202 203
4 204 205 206 207
4 208 209 210 211
4 212 213 214 215
4 216 217 218 219
4 220 221 222 223
4 224 225 226 227
4 228 229 230 231
4 232 233 234 235
4 236 237 238 239
4 240 241 242 243
4 244 245 246 247
4 248 249 250 251
4 252 253 254 255
4 256 257 258 259
4 260 261 262 263
4 264 265 266 267
4 268 269 270 271
4 272 273 274 275
4 276 277 278 279
4 280 281 282 283
4 284 285 286 287
4 288 289 290 291
4 292 293 294 295
4 296 297 298 299
4 300 301 302 303
4 304 305 306 307
4 308 309 310 311
4 312 313 314 315
4 316 317 318 319
4 320 321 322 323
4 324 325 326 327
4 328 329 330 331
4 332 333 334 335
4 336 337 338 339
4 340 341 342 343
4 344 345 346 347
4 348 349 350 351
4 352 353 354 355
4 356 357 358 359
4 360 361 362 363
4 364 365 366 367
